<?xml version="1.0" encoding="UTF-8"?>
<svg width="631px" height="123px" viewBox="0 0 631 123" version="1.1" xmlns="http://www.w3.org/2000/svg" xmlns:xlink="http://www.w3.org/1999/xlink">
    <!-- Generator: Sketch 53.2 (72643) - https://sketchapp.com -->
    <title>Custom Preset 2</title>
    <desc>Created with Sketch.</desc>
    <g id="Custom-Preset-2" stroke="none" stroke-width="1" fill="none" fill-rule="evenodd">
        <g id="reflex-logo" fill="#FFFFFF" fill-rule="nonzero">
            <path d="M0.6,0.2 L39.5,0.2 C55.7,0.4 66.6,0.4 77.3,9 C84.9,15.2 90.8,24.9 90.8,39.1 C90.8,62.4 73.7,70.6 66.8,72.6 L93.9,122.2 L67.8,122.2 L43.6,77 L23.2,77 L23.2,122.3 L0.6,122.3 L0.6,0.2 Z M23.2,19.9 L23.2,58.1 L31.1,58.1 C38.9,58.1 41.8,57.9 46.1,57.8 C51.1,57.6 67.5,56.8 67.5,39 C67.5,36.4 67.3,27.4 57.8,22.6 C53,20.2 47.1,20 33.6,20 L23.2,20 L23.2,19.9 Z" id="Shape"></path>
            <polygon id="Path" points="141.4 20.6 141.4 49.3 200.2 49.3 200.2 69 141.4 69 141.4 101.7 210 101.7 210 122.3 119 122.3 119 0.3 205.8 0.3 205.8 20.7 141.4 20.7"></polygon>
            <polygon id="Path" points="257.4 51.1 308.4 51.1 308.4 70.6 257.4 70.6 257.4 122.3 234.8 122.3 234.8 0.3 315.5 0.3 315.5 20.7 257.4 20.7"></polygon>
            <polygon id="Path" points="358.7 101.5 407.1 101.5 407.1 122.2 335.7 122.2 335.7 0.1 358.7 0.1"></polygon>
            <polygon id="Path" points="444.1 20.6 444.1 49.3 502.9 49.3 502.9 69 444.1 69 444.1 101.7 512.7 101.7 512.7 122.3 421.6 122.3 421.6 0.3 508.4 0.3 508.4 20.7 444.1 20.7"></polygon>
            <polygon id="Path" points="588.9 56.1 630.2 122.3 604.1 122.3 575.6 77.2 547.8 122.3 521.4 122.3 562.4 56.1 527.3 0.3 553.6 0.3 575.7 35.2 596.8 0.3 623.4 0.3"></polygon>
        </g>
    </g>
</svg>